<?xml version="1.0" standalone="no"?>
<!DOCTYPE svg PUBLIC "-//W3C//DTD SVG 20010904//EN"
 "http://www.w3.org/TR/2001/REC-SVG-20010904/DTD/svg10.dtd">
<svg version="1.0" xmlns="http://www.w3.org/2000/svg"
 width="1858.000000pt" height="1858.000000pt" viewBox="0 0 1858.000000 1858.000000"
 preserveAspectRatio="xMidYMid meet">
<metadata>
Created by potrace 1.11, written by Peter Selinger 2001-2013
</metadata>
<g transform="translate(0.000000,1858.000000) scale(0.100000,-0.100000)"
fill="#000000" stroke="none">
<path d="M7693 16620 c-66 -33 -157 -117 -283 -260 -41 -46 -85 -95 -97 -107
-12 -13 -48 -56 -80 -96 -32 -39 -60 -74 -63 -77 -3 -3 -30 -34 -60 -70 -30
-35 -65 -76 -77 -90 -11 -14 -78 -92 -149 -175 -70 -82 -130 -152 -133 -155
-16 -13 -362 -423 -490 -580 -78 -96 -150 -184 -159 -195 -14 -16 -144 -180
-222 -279 -8 -10 -26 -33 -41 -50 -28 -35 -309 -391 -351 -446 -14 -19 -65
-84 -113 -145 -48 -60 -112 -144 -143 -185 -31 -41 -59 -77 -62 -80 -5 -5
-139 -177 -295 -380 -33 -43 -110 -143 -171 -222 -60 -78 -218 -282 -349 -453
-211 -273 -650 -831 -665 -845 -3 -3 -35 -41 -70 -85 -36 -44 -68 -82 -71 -85
-3 -3 -43 -50 -89 -105 -46 -55 -87 -102 -90 -105 -3 -3 -39 -43 -80 -90 -99
-113 -268 -279 -318 -313 -37 -26 -99 -42 -237 -62 -16 -3 -41 -7 -55 -10 -14
-3 -45 -8 -70 -11 -25 -3 -52 -7 -60 -9 -8 -2 -37 -7 -65 -10 -54 -7 -85 -12
-125 -19 -25 -5 -33 -6 -176 -26 -44 -6 -91 -12 -103 -15 -13 -2 -49 -7 -80
-11 -31 -3 -63 -7 -71 -9 -8 -1 -40 -6 -70 -10 -30 -4 -64 -9 -75 -11 -11 -3
-42 -7 -70 -9 -27 -3 -75 -10 -105 -15 -30 -5 -77 -11 -105 -14 -45 -6 -70 -9
-155 -21 -14 -2 -88 -11 -165 -20 -77 -9 -151 -18 -165 -21 -14 -2 -72 -7
-130 -10 -127 -7 -163 -17 -178 -49 -34 -74 59 -103 324 -99 127 2 252 8 344
19 19 2 69 7 110 10 41 4 82 8 90 10 8 1 47 6 85 10 39 4 77 8 85 10 8 2 44 6
80 10 36 3 72 8 80 10 8 2 42 7 75 11 33 3 69 8 80 9 11 2 83 13 160 25 76 11
151 22 165 25 52 8 107 15 169 20 36 3 88 8 117 11 32 3 55 0 59 -6 11 -18
-135 -183 -531 -598 -43 -46 -101 -107 -129 -136 -27 -29 -120 -127 -206 -217
-238 -251 -407 -436 -517 -568 -21 -24 -47 -55 -60 -70 -50 -58 -130 -178
-143 -213 -27 -79 30 -86 336 -42 159 22 342 98 383 157 43 64 26 95 -59 103
-69 6 -89 12 -89 28 0 13 114 159 183 234 164 178 196 212 386 411 245 258
340 358 417 440 38 40 89 95 114 121 70 75 262 280 290 310 108 117 134 140
159 141 14 0 35 2 46 3 25 4 130 16 170 21 17 2 59 7 95 10 36 4 72 8 81 10 8
2 49 6 90 10 41 3 81 8 89 10 8 2 49 7 91 10 42 3 87 8 99 10 13 3 73 7 133
11 l110 7 -7 -38 c-8 -39 -47 -141 -131 -340 -26 -60 -59 -140 -75 -176 -15
-36 -35 -81 -43 -100 -80 -175 -356 -891 -520 -1349 -12 -34 -15 -35 -97 -52
-47 -9 -105 -19 -130 -23 -25 -3 -70 -10 -100 -15 -54 -9 -78 -13 -150 -25
-19 -3 -46 -7 -60 -10 -14 -3 -41 -7 -60 -10 -199 -33 -873 -152 -956 -169
-12 -2 -37 -7 -55 -10 -76 -13 -299 -54 -359 -66 -25 -5 -97 -19 -160 -30 -63
-12 -182 -35 -264 -51 -82 -16 -161 -32 -175 -34 -27 -5 -59 -11 -101 -20 -14
-3 -59 -12 -100 -20 -41 -8 -86 -17 -100 -20 -26 -5 -54 -11 -105 -21 -100
-18 -270 -57 -293 -65 -110 -42 -52 -97 128 -125 19 -2 58 -9 85 -14 82 -15
221 -24 370 -23 216 0 299 10 556 62 79 17 160 33 179 36 19 3 42 8 50 10 8 2
29 7 45 9 17 3 73 14 125 25 117 24 296 59 330 65 35 5 241 45 325 62 39 7 86
16 105 19 19 3 69 12 110 20 95 19 139 27 167 30 11 2 29 5 40 9 10 3 38 8 63
11 25 4 77 13 115 20 104 21 254 47 301 52 l40 5 -131 -394 c-282 -849 -570
-1795 -711 -2338 -2 -8 -17 -67 -34 -130 -17 -63 -33 -122 -35 -130 -50 -188
-206 -828 -221 -907 -2 -12 -20 -91 -38 -175 -19 -84 -37 -164 -40 -178 -2
-14 -10 -50 -16 -80 -6 -30 -13 -66 -16 -80 -2 -14 -11 -54 -19 -90 -7 -36
-17 -85 -20 -110 -4 -24 -8 -47 -10 -50 -2 -3 -6 -25 -10 -50 -4 -25 -8 -47
-10 -50 -2 -3 -6 -26 -10 -50 -3 -25 -8 -53 -11 -63 -3 -10 -7 -31 -9 -47 -2
-17 -15 -90 -29 -162 -14 -73 -28 -146 -30 -163 -3 -16 -15 -79 -25 -140 -11
-60 -23 -126 -26 -145 -3 -19 -7 -46 -10 -60 -3 -14 -7 -38 -9 -55 -12 -78
-20 -130 -21 -135 -1 -3 -5 -36 -9 -75 -5 -38 -10 -77 -11 -86 -7 -36 72 -83
122 -74 10 2 27 4 39 4 51 2 92 78 109 201 4 25 11 68 17 95 5 28 12 64 14 80
3 17 9 50 14 75 5 25 14 73 20 107 16 89 18 103 47 248 14 72 27 140 29 153 9
50 13 70 28 142 8 41 17 86 20 100 2 14 14 69 25 124 12 54 23 108 25 120 12
56 26 123 30 141 3 11 16 74 30 140 14 66 43 201 66 300 23 99 43 187 45 195
2 8 9 38 15 65 6 28 13 57 15 65 50 239 261 1049 380 1460 7 25 27 95 45 155
17 61 42 146 55 190 175 575 236 767 345 1095 70 212 158 471 195 575 37 105
70 201 74 214 7 26 28 35 104 45 23 3 52 8 63 10 12 2 39 7 60 10 22 4 64 11
94 16 112 19 305 50 350 56 19 2 42 6 50 9 8 2 33 7 55 10 22 3 64 9 93 14 38
6 52 5 49 -3 -37 -99 -206 -631 -303 -951 -148 -491 -364 -1415 -364 -1555 0
-38 3 -42 36 -56 78 -33 174 -1 207 68 12 26 84 290 102 378 14 66 203 715
282 970 25 80 51 165 58 190 12 41 33 110 101 325 14 44 27 85 28 90 1 6 17
55 35 110 18 55 34 105 35 110 1 6 29 93 62 194 66 206 57 195 170 206 38 4
71 9 74 10 3 2 26 6 50 10 25 3 72 10 105 15 33 5 80 12 105 15 25 3 72 10
105 15 33 5 78 12 100 15 39 5 71 10 130 19 17 3 84 12 150 21 66 9 163 22
215 30 52 7 118 16 145 20 63 7 134 17 159 21 10 2 44 6 75 10 31 3 64 8 73 9
9 2 48 7 85 10 37 4 70 9 73 10 3 2 37 6 75 10 39 3 77 8 85 10 8 2 42 7 75
11 33 3 68 8 77 9 9 2 48 7 85 10 37 4 70 9 73 10 3 2 43 6 90 10 47 4 87 9
90 10 3 2 37 6 75 10 39 4 78 9 88 11 10 2 48 6 85 9 37 4 78 8 92 10 14 2 50
6 80 10 30 3 71 8 90 10 19 2 60 7 90 10 81 8 152 16 180 20 14 2 57 7 96 10
39 3 80 7 90 9 10 2 51 7 89 10 39 4 86 9 105 11 70 8 156 17 185 20 143 12
193 17 215 20 14 2 59 6 100 10 41 4 87 8 103 11 34 5 34 6 -3 -179 -40 -201
-68 -368 -75 -452 -5 -62 -4 -73 14 -92 12 -12 37 -25 56 -29 47 -9 135 2 150
18 10 11 22 55 40 148 14 74 25 127 29 145 2 11 23 112 45 225 45 222 52 247
73 247 13 0 144 11 228 18 137 12 220 17 220 12 0 -2 -7 -23 -15 -46 -8 -23
-14 -45 -15 -49 0 -4 -5 -20 -9 -37 -39 -128 -133 -455 -137 -474 -3 -14 -7
-28 -10 -33 -3 -4 -7 -16 -9 -25 -3 -10 -9 -34 -14 -53 -28 -107 -141 -549
-145 -570 -3 -14 -7 -34 -10 -45 -7 -27 -54 -244 -59 -275 -30 -158 -37 -202
-43 -245 -3 -27 -8 -59 -11 -70 -2 -11 -6 -81 -8 -155 -4 -113 -1 -144 14
-189 28 -79 57 -104 130 -109 51 -4 69 0 123 25 107 50 225 157 409 369 52 60
96 111 99 114 7 6 253 318 301 380 18 25 39 52 46 60 7 8 78 103 159 210 146
193 398 516 419 535 6 6 31 35 56 65 54 68 276 327 338 395 82 90 228 249 283
307 l53 57 85 6 c103 7 319 18 580 30 563 26 620 28 1005 40 94 3 235 7 315
10 554 18 1176 26 2060 25 812 0 1044 -3 1575 -15 417 -11 486 -10 735 10 14
1 45 5 70 9 25 4 58 10 75 12 40 7 92 33 99 50 22 57 -90 99 -324 119 -390 35
-3034 41 -4215 10 -338 -9 -578 -16 -685 -20 -63 -3 -182 -7 -265 -10 -195 -6
-373 -13 -510 -20 -281 -13 -355 -16 -355 -11 0 8 213 214 345 331 43 39 83
75 89 80 81 74 264 210 400 297 77 48 93 55 110 46 87 -47 254 -42 392 11 184
71 298 199 350 391 13 47 18 103 18 201 0 127 -2 139 -27 191 -15 30 -27 58
-27 61 0 16 52 53 120 84 92 43 338 126 350 118 10 -6 -18 -92 -110 -335 -97
-259 -165 -488 -185 -625 -4 -22 -9 -51 -12 -65 -11 -56 -12 -330 -1 -357 30
-70 80 -93 206 -95 98 -1 146 13 219 61 65 44 243 216 374 361 93 103 96 107
220 255 123 148 143 170 264 290 165 166 212 174 202 35 -6 -84 -10 -102 -47
-240 -42 -157 -50 -289 -22 -352 36 -82 105 -106 219 -77 142 36 414 178 594
311 322 237 630 423 846 509 143 57 187 67 323 74 198 10 271 28 278 68 9 48
-73 76 -243 83 -174 7 -297 -21 -503 -117 -46 -22 -85 -39 -87 -39 -12 0 -265
-142 -380 -213 -521 -322 -786 -471 -833 -465 -40 5 -41 57 -2 167 17 49 33
99 35 110 2 12 6 24 8 29 3 4 8 25 12 47 3 22 10 61 14 87 14 84 6 199 -16
249 -63 141 -234 151 -419 26 -106 -72 -144 -106 -309 -271 -158 -159 -202
-206 -280 -301 -188 -230 -370 -415 -406 -415 -33 0 -30 123 7 243 38 127 111
332 156 442 133 323 203 517 215 599 2 17 8 47 12 66 11 55 0 103 -28 116 -33
17 -174 15 -252 -2 -99 -23 -315 -98 -519 -181 -278 -114 -410 -155 -575 -183
-94 -15 -146 -41 -182 -93 -31 -43 -64 -128 -84 -214 -6 -27 -13 -57 -16 -68
-3 -11 -7 -96 -9 -189 l-3 -169 -73 -39 c-69 -37 -185 -109 -218 -135 -8 -6
-60 -45 -115 -86 -188 -141 -501 -422 -734 -659 -86 -87 -64 -81 -316 -93 -66
-3 -151 -8 -190 -11 -75 -5 -165 -10 -310 -19 -49 -3 -121 -8 -160 -10 -38 -3
-104 -8 -145 -10 -124 -7 -232 -15 -292 -20 l-57 -5 26 78 c138 418 392 1106
478 1297 8 17 32 73 53 125 22 52 48 115 60 140 11 25 33 74 48 110 62 142
207 421 275 530 68 109 224 324 306 420 138 161 244 284 299 346 36 40 74 83
85 95 11 13 39 44 62 69 23 25 85 92 136 150 52 58 108 121 126 140 17 19 82
98 144 175 62 77 118 147 125 156 33 40 188 264 242 349 251 392 388 760 330
889 -21 46 -77 81 -139 86 -137 11 -303 -153 -717 -706 -289 -387 -464 -642
-654 -954 -54 -88 -106 -172 -117 -187 -10 -15 -19 -30 -19 -33 0 -3 -20 -38
-43 -78 -164 -273 -449 -819 -602 -1152 -73 -160 -93 -204 -172 -385 -208
-479 -413 -1014 -568 -1490 -32 -96 -60 -178 -64 -182 -7 -8 -113 -19 -316
-33 -44 -3 -104 -8 -133 -10 -47 -4 -53 -3 -48 13 3 9 21 91 41 182 144 658
315 1247 513 1765 214 561 482 1091 741 1465 156 225 304 455 337 523 53 111
38 167 -44 167 -94 0 -205 -79 -346 -245 -33 -39 -141 -151 -241 -250 -198
-197 -293 -286 -500 -470 -49 -44 -99 -89 -111 -100 -11 -11 -34 -31 -50 -45
-60 -51 -179 -155 -184 -160 -5 -5 -189 -164 -230 -198 -14 -11 -36 -31 -50
-43 -32 -28 -308 -248 -340 -272 -231 -166 -360 -241 -490 -287 -203 -72 -328
-188 -450 -419 -46 -89 -66 -113 -188 -235 -164 -163 -265 -248 -392 -331
-343 -223 -603 -223 -849 1 -43 40 -51 52 -40 60 15 12 66 41 199 112 259 138
437 338 474 532 29 152 -3 293 -77 339 -64 40 -252 56 -423 37 -126 -15 -273
-66 -398 -138 -69 -40 -191 -127 -231 -164 -73 -69 -145 -124 -145 -112 0 12
5 43 24 143 21 113 17 123 -50 132 -113 15 -165 -37 -307 -306 -31 -58 -62
-106 -71 -107 -8 -1 -154 -5 -323 -9 -169 -3 -354 -8 -410 -9 -57 -2 -103 0
-103 5 0 4 80 167 178 361 175 346 304 584 477 883 48 83 99 170 113 195 21
37 201 341 231 390 5 8 53 87 107 175 53 88 149 245 213 348 64 103 123 200
132 215 27 45 258 414 383 610 64 101 116 186 116 188 0 3 5 10 11 17 5 7 102
156 214 332 112 176 244 383 293 460 274 427 353 554 472 752 151 252 248 440
256 499 5 33 2 45 -17 68 -20 22 -35 27 -89 32 -59 5 -71 3 -127 -26z m-869
-1387 c-15 -27 -39 -66 -53 -88 -14 -22 -34 -55 -44 -74 -10 -18 -22 -38 -28
-45 -5 -6 -71 -108 -145 -226 -154 -242 -523 -826 -541 -856 -68 -112 -220
-357 -238 -384 -19 -30 -147 -241 -365 -605 -26 -44 -95 -163 -154 -265 -58
-102 -110 -192 -116 -200 -13 -21 -77 -135 -113 -200 -16 -30 -45 -81 -63
-113 -19 -32 -34 -60 -34 -62 0 -2 -17 -34 -39 -72 -21 -37 -57 -104 -81 -148
-23 -44 -59 -111 -80 -150 -20 -38 -84 -160 -140 -270 -108 -210 -201 -389
-203 -392 -3 -3 -81 -13 -137 -17 -30 -3 -93 -9 -140 -15 -47 -5 -112 -12
-145 -16 -72 -7 -290 -34 -325 -40 -110 -19 -181 -27 -186 -22 -4 4 4 24 18
45 34 50 206 267 248 311 8 9 67 79 130 156 63 77 122 149 132 160 97 118 643
820 1100 1415 78 102 171 223 207 270 66 86 441 569 485 625 13 17 104 131
202 255 97 124 209 266 248 315 39 50 73 92 76 95 3 3 86 106 184 230 99 124
182 227 186 230 3 3 16 18 28 34 32 42 144 166 149 166 3 0 -8 -21 -23 -47z
m5716 -1200 c-23 -44 -21 -40 -119 -193 -132 -204 -408 -560 -435 -560 -12 0
22 54 154 250 152 223 194 280 300 405 42 50 85 100 96 113 26 31 27 28 4 -15z
m-2503 -1715 c-61 -126 -108 -232 -192 -433 -97 -230 -264 -723 -345 -1015
-10 -36 -27 -96 -38 -135 -17 -57 -82 -304 -97 -365 -2 -8 -18 -73 -35 -145
-17 -71 -33 -137 -35 -145 -2 -8 -15 -67 -30 -130 -14 -63 -28 -124 -31 -135
-24 -117 -63 -287 -67 -291 -7 -7 -40 -12 -137 -19 -47 -4 -101 -8 -120 -10
-19 -2 -71 -6 -115 -10 -43 -3 -93 -8 -110 -10 -16 -2 -61 -7 -100 -10 -38 -4
-88 -8 -110 -10 -22 -2 -76 -7 -120 -10 -44 -3 -87 -8 -95 -10 -8 -2 -51 -6
-95 -10 -44 -3 -96 -8 -115 -10 -45 -5 -120 -13 -195 -20 -33 -4 -76 -8 -95
-10 -19 -2 -64 -7 -100 -10 -36 -3 -99 -10 -140 -15 -41 -5 -102 -12 -135 -15
-93 -9 -147 -15 -180 -20 -16 -2 -61 -7 -100 -11 -38 -3 -77 -8 -85 -9 -8 -2
-46 -6 -85 -10 -38 -4 -78 -9 -87 -11 -9 -1 -49 -5 -90 -9 -40 -3 -80 -8 -88
-10 -8 -2 -44 -7 -80 -10 -36 -4 -76 -8 -90 -10 -38 -6 -178 -23 -240 -30 -30
-4 -66 -8 -80 -10 -14 -2 -47 -7 -75 -10 -27 -3 -66 -7 -85 -10 -19 -3 -53 -7
-75 -9 -70 -9 -479 -63 -610 -81 -16 -3 -52 -7 -80 -10 -49 -6 -152 -21 -207
-31 -16 -2 -28 -1 -28 3 0 5 21 67 46 138 26 72 49 140 51 153 3 12 9 25 14
28 5 3 9 11 9 19 0 38 188 489 304 730 179 371 417 752 560 898 28 28 51 55
51 59 0 28 290 288 387 346 55 34 329 100 395 96 97 -6 141 -54 127 -140 -28
-181 -251 -382 -669 -603 -236 -126 -325 -191 -325 -239 0 -44 29 -54 173 -57
71 -2 148 -6 170 -10 98 -15 228 -70 392 -165 71 -42 148 -62 235 -63 176 0
355 72 635 257 97 64 221 157 271 203 78 72 71 76 66 -42 -7 -157 22 -229 117
-287 28 -18 51 -22 130 -22 155 -1 242 20 312 75 83 66 182 254 228 435 31
121 36 161 47 349 6 100 10 171 13 201 1 6 43 38 94 70 246 154 527 349 642
445 87 73 173 145 186 158 127 125 385 338 396 327 3 -3 -15 -47 -40 -98z
m-1553 -1084 c84 -83 -141 -617 -278 -660 -68 -22 -52 160 33 355 68 158 153
294 194 311 31 12 34 12 51 -6z m4886 -31 c96 -31 142 -103 124 -199 -14 -79
-103 -229 -169 -286 -31 -27 -98 -66 -120 -70 -17 -2 -19 2 -17 28 3 24 -2 33
-23 42 -14 7 -32 12 -39 12 -18 0 -22 20 -25 110 -3 130 51 273 131 345 43 39
64 42 138 18z m-7870 -241 c0 -3 -15 -37 -34 -76 -227 -473 -467 -1046 -683
-1626 -52 -140 -96 -256 -97 -257 0 0 -30 -4 -66 -8 -36 -4 -67 -8 -70 -10 -3
-2 -30 -6 -60 -9 -30 -4 -66 -9 -80 -11 -14 -3 -38 -7 -55 -9 -41 -6 -117 -18
-135 -21 -8 -1 -40 -6 -70 -9 -30 -4 -77 -11 -105 -16 -27 -5 -68 -11 -90 -14
-22 -3 -53 -8 -70 -11 -80 -14 -95 -16 -95 -11 0 10 258 685 297 776 21 49 26
61 73 180 129 322 434 1035 451 1054 11 12 16 13 127 21 48 3 105 8 127 10 22
2 70 7 108 10 37 3 97 7 135 10 37 3 85 8 107 10 22 2 83 7 135 11 52 3 96 7
97 8 5 4 53 2 53 -2z m5867 -1551 c-17 -20 -47 -54 -68 -76 -171 -185 -565
-658 -744 -895 -44 -58 -82 -107 -85 -110 -3 -3 -40 -50 -81 -105 -185 -245
-281 -371 -292 -385 -7 -8 -57 -73 -112 -145 -137 -179 -365 -465 -372 -465
-3 0 -2 12 1 26 4 14 9 45 12 67 3 23 14 89 26 146 11 57 22 115 24 127 50
276 224 916 429 1579 21 66 41 135 47 153 8 27 14 32 41 33 18 0 39 2 47 3 8
2 62 7 120 10 58 4 125 9 150 11 25 2 90 6 145 10 55 3 111 8 125 10 14 2 75
6 135 10 61 4 130 8 155 10 25 2 97 7 160 10 63 4 116 8 117 9 1 1 13 2 27 2
l25 0 -32 -35z"/>
</g>
</svg>
